PathFileType	4	(x/y/z)	S06_SL_Cal_T01
DataRate	CameraRate	NumFrames	NumMarkers	Units	OrigDataRate	OrigDataStartFrame	OrigNumFrames
240	240	5	51	mm	240	1500	2399
Frame#	Time	Sternum			R.Acromium			L.Acromium			Top.Head			R.ASIS			L.ASIS			R.PSIS			L.PSIS			R.Great.Tro			L.Great.Tro			R.Iliac.Crest			L.Iliac.Crest			V.Sacral			R.Thigh.Upper.Post			R.Thigh.Lower.Ant			R.Thigh.Lower.Post			R.Thigh.Upper.Ant			R.Knee.Lat			R.Knee.Med			R.Shank.Upper.Post			R.Shank.Lower.Ant			R.Shank.Lower.Post			R.Shank.Upper.Ant			R.Ankle.Lat			R.Ankle.Med			R.Heel.Upper			R.Heel.Med			R.Heel.Lat			R.Toe.Lat			R.Toe.Med			R.Toe.Tip			L.Thigh.Upper.Post			L.Thigh.Lower.Ant			L.Thigh.Lower.Post			L.Thigh.Upper.Ant			L.Knee.Lat			L.Knee.Med			L.Shank.Upper.Post			L.Shank.Lower.Ant			L.Shank.Lower.Post			L.Shank.Upper.Ant			L.Ankle.Lat			L.Ankle.Med			L.Heel.Upper			L.Heel.Med			L.Heel.Lat			L.Toe.Lat			L.Toe.Med			L.Toe.Tip			Cervical.Spine			Back			
		X1	Y1	Z1	X2	Y2	Z2	X3	Y3	Z3	X4	Y4	Z4	X5	Y5	Z5	X6	Y6	Z6	X7	Y7	Z7	X8	Y8	Z8	X9	Y9	Z9	X10	Y10	Z10	X11	Y11	Z11	X12	Y12	Z12	X13	Y13	Z13	X14	Y14	Z14	X15	Y15	Z15	X16	Y16	Z16	X17	Y17	Z17	X18	Y18	Z18	X19	Y19	Z19	X20	Y20	Z20	X21	Y21	Z21	X22	Y22	Z22	X23	Y23	Z23	X24	Y24	Z24	X25	Y25	Z25	X26	Y26	Z26	X27	Y27	Z27	X28	Y28	Z28	X29	Y29	Z29	X30	Y30	Z30	X31	Y31	Z31	X32	Y32	Z32	X33	Y33	Z33	X34	Y34	Z34	X35	Y35	Z35	X36	Y36	Z36	X37	Y37	Z37	X38	Y38	Z38	X39	Y39	Z39	X40	Y40	Z40	X41	Y41	Z41	X42	Y42	Z42	X43	Y43	Z43	X44	Y44	Z44	X45	Y45	Z45	X46	Y46	Z46	X47	Y47	Z47	X48	Y48	Z48	X49	Y49	Z49	X50	Y50	Z50	X51	Y51	Z51	

1500	6.2458	752.26	1314	318.19	609.24	1543.6	467.04	602.97	1532.4	150.07	669.4	1828.1	307.97	720.95	1066.5	443.79	728.46	1059.7	190.77	523.42	1084.3	345.19	524.67	1087.2	264.91	658.87	1001.4	493.02	630.71	995.31	137.16	634.19	1142.5	472.04	658.34	1134.8	152.49	510.32	1050.9	307.8	639.12	752.81	498.69	688.96	668.11	469.72	621.08	666.18	483.11	710.98	755.99	482.54	633.06	552.36	477.63	639.6	545.01	350.78	569.03	327.62	495.21	625.68	259.37	480.91	561.21	250.61	486.45	634.33	335.27	489.66	587.53	111.97	472.28	605.49	112.08	385.42	522.3	74.12	428.74	531.09	43.412	397.91	528.93	42.832	463.47	704.5	36.347	507.05	734.36	44.542	387.5	799.71	54.543	436.37	665.4	733.91	131.63	712.98	646.1	178.69	642.18	646.44	143.73	730.46	739.06	164.12	620.1	551.13	152.99	656.3	542.83	270.6	559.46	326.69	143.73	620.72	262.64	134.3	553.12	254.29	154.08	624.16	334.2	129.86	589.64	111.64	136.8	606.68	108.89	225.69	518.81	72.997	179.41	525.46	46.144	211.75	522.33	47.369	149.69	697.43	45.831	98.925	727.65	43.467	216.36	795.27	55.382	157.56	566.36	1560	308.68	518.8	1291.7	311.54
1501	6.25	752.26	1314	318.19	609.25	1543.6	467.03	602.29	1532.3	150.19	669.41	1828.1	307.94	720.94	1066.5	443.78	728.45	1059.7	190.77	523.42	1084.3	345.18	524.67	1087.2	264.9	658.87	1001.4	493.01	630.71	995.32	137.16	634.2	1142.5	472.03	658.35	1134.8	152.48	510.32	1050.9	307.79	639.12	752.81	498.68	688.96	668.11	469.71	621.08	666.18	483.11	710.99	755.99	482.53	633.07	552.36	477.62	639.61	545.01	350.78	569.03	327.62	495.2	625.68	259.37	480.9	561.21	250.61	486.44	634.33	335.27	489.66	587.53	111.97	472.28	605.49	112.08	385.42	522.3	74.12	428.74	531.1	43.412	397.91	528.93	42.832	463.47	704.5	36.347	507.05	734.36	44.542	387.5	799.71	54.543	436.37	665.4	733.91	131.62	712.99	646.1	178.68	642.18	646.45	143.72	730.46	739.06	164.11	620.11	551.13	152.98	656.31	542.83	270.59	559.47	326.69	143.72	620.73	262.64	134.3	553.12	254.29	154.08	624.16	334.2	129.86	589.64	111.64	136.8	606.68	108.89	225.69	518.82	72.998	179.4	525.46	46.144	211.75	522.33	47.369	149.68	697.43	45.832	98.925	727.65	43.467	216.36	795.27	55.385	157.56	566.37	1560	308.68	518.81	1291.7	311.54
1502	6.2542	752.26	1314	318.19	609.26	1543.6	467.03	601.79	1532.3	150.27	669.42	1828.1	307.91	720.94	1066.5	443.77	728.45	1059.7	190.76	523.41	1084.3	345.17	524.67	1087.2	264.89	658.87	1001.4	493	630.71	995.32	137.15	634.2	1142.5	472.02	658.35	1134.8	152.47	510.32	1050.9	307.78	639.12	752.81	498.68	688.96	668.11	469.7	621.08	666.18	483.1	710.99	755.99	482.51	633.07	552.36	477.61	639.61	545.01	350.77	569.03	327.62	495.2	625.68	259.37	480.89	561.21	250.61	486.43	634.33	335.27	489.65	587.53	111.97	472.28	605.49	112.08	385.42	522.3	74.12	428.74	531.1	43.411	397.91	528.93	42.833	463.47	704.5	36.347	507.05	734.36	44.543	387.5	799.7	54.543	436.37	665.41	733.91	131.62	712.99	646.1	178.68	642.19	646.45	143.72	730.47	739.06	164.1	620.12	551.13	152.98	656.31	542.83	270.59	559.47	326.7	143.7	620.73	262.63	134.3	553.12	254.29	154.08	624.17	334.2	129.86	589.64	111.64	136.81	606.68	108.89	225.69	518.82	72.998	179.4	525.46	46.145	211.75	522.33	47.369	149.68	697.43	45.833	98.925	727.65	43.468	216.36	795.27	55.389	157.56	566.37	1560	308.68	518.81	1291.7	311.54
1503	6.2583	752.26	1314	318.19	609.27	1543.7	467.03	601.48	1532.3	150.33	669.43	1828.1	307.89	720.94	1066.5	443.75	728.45	1059.7	190.75	523.41	1084.3	345.16	524.66	1087.2	264.88	658.87	1001.4	492.99	630.7	995.32	137.14	634.21	1142.5	472.01	658.35	1134.8	152.46	510.32	1051	307.77	639.12	752.8	498.67	688.96	668.11	469.69	621.09	666.18	483.09	710.99	755.99	482.5	633.08	552.36	477.61	639.62	545.01	350.76	569.03	327.62	495.19	625.68	259.37	480.89	561.21	250.61	486.43	634.33	335.27	489.64	587.53	111.97	472.28	605.49	112.08	385.42	522.3	74.121	428.74	531.1	43.411	397.91	528.93	42.833	463.47	704.5	36.348	507.05	734.36	44.543	387.5	799.7	54.544	436.37	665.41	733.92	131.61	713	646.1	178.67	642.2	646.45	143.71	730.47	739.06	164.1	620.12	551.13	152.97	656.32	542.83	270.58	559.48	326.7	143.69	620.73	262.63	134.3	553.12	254.29	154.07	624.17	334.21	129.85	589.64	111.64	136.81	606.68	108.89	225.69	518.82	72.999	179.4	525.46	46.145	211.75	522.33	47.369	149.68	697.43	45.834	98.925	727.65	43.468	216.36	795.28	55.392	157.56	566.38	1560	308.68	518.81	1291.7	311.54
1504	6.2625	752.26	1314	318.19	609.29	1543.7	467.03	601.39	1532.3	150.36	669.44	1828.1	307.87	720.94	1066.5	443.74	728.45	1059.7	190.74	523.4	1084.3	345.14	524.66	1087.1	264.87	658.87	1001.4	492.98	630.7	995.33	137.13	634.21	1142.5	472	658.36	1134.8	152.46	510.32	1051	307.76	639.12	752.8	498.66	688.97	668.11	469.68	621.09	666.18	483.09	710.99	756	482.49	633.08	552.36	477.6	639.63	545.01	350.75	569.04	327.62	495.18	625.68	259.37	480.88	561.21	250.61	486.42	634.34	335.27	489.64	587.53	111.98	472.28	605.49	112.08	385.42	522.3	74.121	428.74	531.1	43.41	397.91	528.93	42.833	463.47	704.5	36.349	507.05	734.36	44.544	387.5	799.7	54.545	436.37	665.42	733.92	131.6	713.01	646.11	178.67	642.2	646.45	143.7	730.48	739.07	164.09	620.13	551.13	152.96	656.33	542.84	270.57	559.49	326.7	143.68	620.73	262.63	134.3	553.12	254.29	154.07	624.17	334.21	129.85	589.64	111.64	136.81	606.68	108.89	225.69	518.82	72.999	179.4	525.46	46.146	211.75	522.33	47.368	149.68	697.43	45.835	98.925	727.65	43.468	216.36	795.28	55.396	157.56	566.38	1560	308.68	518.81	1291.7	311.54
